<svg width="300" height="30" viewBox="0 0 300 30" fill="none" xmlns="http://www.w3.org/2000/svg">
<path d="M0 30V0H6V30H0ZM27 30L12 15L27 0H36L24 12H23.9531L21 15L36 30H27ZM42 30V12H78V30H72V18H48V30H42ZM48 6C46.3125 6 44.8906 5.42187 43.7344 4.26562C42.5781 3.07812 42 1.65625 42 0H78C78 1.6875 77.4062 3.10938 76.2188 4.26562C75.0312 5.42187 73.625 6 72 6H48ZM84 30V12H111C111.812 12 112.516 11.7188 113.109 11.1562C113.703 10.5625 114 9.84375 114 9V6H90C88.3125 6 86.8906 5.42187 85.7344 4.26562C84.5781 3.07812 84 1.65625 84 0H120V12C120 13.6875 119.406 15.1094 118.219 16.2656C117.031 17.4219 115.625 18 114 18H108L120 30H111L99 18H90V30H84ZM132 30V6L126 0H135L150 15L165 0H174L168 6V30H162V12L153 21V30H147V21L138 12V30H132ZM180 30V12H186V24H210V12H216V30H180ZM186 6C184.312 6 182.891 5.42187 181.734 4.26562C180.578 3.07812 180 1.65625 180 0H216C216 1.6875 215.406 3.10938 214.219 4.26562C213.031 5.42187 211.625 6 210 6H186ZM228 30V6L222 0H231L252 21V0H258V30H252L234 12V30H228ZM264 30V12H300V30H294V18H270V30H264ZM270 6C268.312 6 266.891 5.42187 265.734 4.26562C264.578 3.07812 264 1.65625 264 0H300C300 1.6875 299.406 3.10938 298.219 4.26562C297.031 5.42187 295.625 6 294 6H270Z" fill="#121E1F"/>
</svg>
