<svg width="140" fill="currentColor" height="14" viewBox="0 0 140 14" fill="none" xmlns="http://www.w3.org/2000/svg">
<path d="M0 14V0H2.8V14H0ZM12.6 14L5.6 7L12.6 0H16.8L11.2 5.6H11.1781L9.8 7L16.8 14H12.6Z"/>
<path d="M19.6 14V5.6H36.4V14H33.6V8.4H22.4V14H19.6ZM22.4 2.8C21.6125 2.8 20.949 2.53021 20.4094 1.99063C19.8698 1.43646 19.6 0.772917 19.6 0H36.4C36.4 0.7875 36.1229 1.45104 35.5687 1.99063C35.0146 2.53021 34.3583 2.8 33.6 2.8H22.4Z"/>
<path d="M39.2 14V5.6H51.8C52.1792 5.6 52.5073 5.46875 52.7844 5.20625C53.0615 4.92917 53.2 4.59375 53.2 4.2V2.8H42C41.2125 2.8 40.549 2.53021 40.0094 1.99063C39.4698 1.43646 39.2 0.772917 39.2 0H56V5.6C56 6.3875 55.7229 7.05104 55.1688 7.59062C54.6146 8.13021 53.9583 8.4 53.2 8.4H50.4L56 14H51.8L46.2 8.4H42V14H39.2Z"/>
<path d="M61.6 14V2.8L58.8 0H63L70 7L77 0H81.2L78.4 2.8V14H75.6V5.6L71.4 9.8V14H68.6V9.8L64.4 5.6V14H61.6Z"/>
<path d="M84 14V5.6H86.8V11.2H98V5.6H100.8V14H84ZM86.8 2.8C86.0125 2.8 85.349 2.53021 84.8094 1.99063C84.2698 1.43646 84 0.772917 84 0H100.8C100.8 0.7875 100.523 1.45104 99.9688 1.99063C99.4146 2.53021 98.7583 2.8 98 2.8H86.8Z"/>
<path d="M106.4 14V2.8L103.6 0H107.8L117.6 9.8V0H120.4V14H117.6L109.2 5.6V14H106.4Z"/>
<path d="M123.2 14V5.6H140V14H137.2V8.4H126V14H123.2ZM126 2.8C125.213 2.8 124.549 2.53021 124.009 1.99063C123.47 1.43646 123.2 0.772917 123.2 0H140C140 0.7875 139.723 1.45104 139.169 1.99063C138.615 2.53021 137.958 2.8 137.2 2.8H126Z"/>
</svg>
