<?xml version="1.0" encoding="UTF-8"?>
<svg xmlns="http://www.w3.org/2000/svg" xmlns:xlink="http://www.w3.org/1999/xlink" width="0" height="0">
<defs>
<symbol viewBox="0 0 24 24" id="zap"><path fill="none" stroke="currentColor" stroke-linecap="round" stroke-linejoin="round" stroke-width="2" d="M4 14a1 1 0 0 1-.78-1.63l9.9-10.2a.5.5 0 0 1 .86.46l-1.92 6.02A1 1 0 0 0 13 10h7a1 1 0 0 1 .78 1.63l-9.9 10.2a.5.5 0 0 1-.86-.46l1.92-6.02A1 1 0 0 0 11 14z"></path></symbol>
<symbol viewBox="0 0 24 24" id="x"><path fill="none" stroke="currentColor" stroke-linecap="round" stroke-linejoin="round" stroke-width="2" d="M18 6L6 18M6 6l12 12"></path></symbol>
<symbol viewBox="0 0 24 24" id="wrench"><path fill="none" stroke="currentColor" stroke-linecap="round" stroke-linejoin="round" stroke-width="2" d="M14.7 6.3a1 1 0 0 0 0 1.4l1.6 1.6a1 1 0 0 0 1.4 0l3.77-3.77a6 6 0 0 1-7.94 7.94l-6.91 6.91a2.12 2.12 0 0 1-3-3l6.91-6.91a6 6 0 0 1 7.94-7.94l-3.76 3.76z"></path></symbol>
<symbol viewBox="0 0 24 24" id="wind"><path fill="none" stroke="currentColor" stroke-linecap="round" stroke-linejoin="round" stroke-width="2" d="M12.8 19.6A2 2 0 1 0 14 16H2m15.5-8a2.5 2.5 0 1 1 2 4H2m7.8-7.6A2 2 0 1 1 11 8H2"></path></symbol>
<symbol viewBox="0 0 24 24" id="users"><g fill="none" stroke="currentColor" stroke-linecap="round" stroke-linejoin="round" stroke-width="2"><path d="M16 21v-2a4 4 0 0 0-4-4H6a4 4 0 0 0-4 4v2M16 3.128a4 4 0 0 1 0 7.744M22 21v-2a4 4 0 0 0-3-3.87"></path><circle cx="9" cy="7" r="4"></circle></g></symbol>
<symbol viewBox="0 0 24 24" id="user"><g fill="none" stroke="currentColor" stroke-linecap="round" stroke-linejoin="round" stroke-width="2"><path d="M19 21v-2a4 4 0 0 0-4-4H9a4 4 0 0 0-4 4v2"></path><circle cx="12" cy="7" r="4"></circle></g></symbol>
<symbol viewBox="0 0 24 24" id="target"><g fill="none" stroke="currentColor" stroke-linecap="round" stroke-linejoin="round" stroke-width="2"><circle cx="12" cy="12" r="10"></circle><circle cx="12" cy="12" r="6"></circle><circle cx="12" cy="12" r="2"></circle></g></symbol>
<symbol viewBox="0 0 24 24" id="sun"><g fill="none" stroke="currentColor" stroke-linecap="round" stroke-linejoin="round" stroke-width="2"><circle cx="12" cy="12" r="4"></circle><path d="M12 2v2m0 16v2M4.93 4.93l1.41 1.41m11.32 11.32l1.41 1.41M2 12h2m16 0h2M6.34 17.66l-1.41 1.41M19.07 4.93l-1.41 1.41"></path></g></symbol>
<symbol viewBox="0 0 24 24" id="store"><g fill="none" stroke="currentColor" stroke-linecap="round" stroke-linejoin="round" stroke-width="2"><path d="m2 7l4.41-4.41A2 2 0 0 1 7.83 2h8.34a2 2 0 0 1 1.42.59L22 7M4 12v8a2 2 0 0 0 2 2h12a2 2 0 0 0 2-2v-8"></path><path d="M15 22v-4a2 2 0 0 0-2-2h-2a2 2 0 0 0-2 2v4M2 7h20m0 0v3a2 2 0 0 1-2 2a2.7 2.7 0 0 1-1.59-.63a.7.7 0 0 0-.82 0A2.7 2.7 0 0 1 16 12a2.7 2.7 0 0 1-1.59-.63a.7.7 0 0 0-.82 0A2.7 2.7 0 0 1 12 12a2.7 2.7 0 0 1-1.59-.63a.7.7 0 0 0-.82 0A2.7 2.7 0 0 1 8 12a2.7 2.7 0 0 1-1.59-.63a.7.7 0 0 0-.82 0A2.7 2.7 0 0 1 4 12a2 2 0 0 1-2-2V7"></path></g></symbol>
<symbol viewBox="0 0 24 24" id="settings"><g fill="none" stroke="currentColor" stroke-linecap="round" stroke-linejoin="round" stroke-width="2"><path d="M12.22 2h-.44a2 2 0 0 0-2 2v.18a2 2 0 0 1-1 1.73l-.43.25a2 2 0 0 1-2 0l-.15-.08a2 2 0 0 0-2.73.73l-.22.38a2 2 0 0 0 .73 2.73l.15.1a2 2 0 0 1 1 1.72v.51a2 2 0 0 1-1 1.74l-.15.09a2 2 0 0 0-.73 2.73l.22.38a2 2 0 0 0 2.73.73l.15-.08a2 2 0 0 1 2 0l.43.25a2 2 0 0 1 1 1.73V20a2 2 0 0 0 2 2h.44a2 2 0 0 0 2-2v-.18a2 2 0 0 1 1-1.73l.43-.25a2 2 0 0 1 2 0l.15.08a2 2 0 0 0 2.73-.73l.22-.39a2 2 0 0 0-.73-2.73l-.15-.08a2 2 0 0 1-1-1.74v-.5a2 2 0 0 1 1-1.74l.15-.09a2 2 0 0 0 .73-2.73l-.22-.38a2 2 0 0 0-2.73-.73l-.15.08a2 2 0 0 1-2 0l-.43-.25a2 2 0 0 1-1-1.73V4a2 2 0 0 0-2-2"></path><circle cx="12" cy="12" r="3"></circle></g></symbol>
<symbol viewBox="0 0 24 24" id="phone"><path fill="none" stroke="currentColor" stroke-linecap="round" stroke-linejoin="round" stroke-width="2" d="M13.832 16.568a1 1 0 0 0 1.213-.303l.355-.465A2 2 0 0 1 17 15h3a2 2 0 0 1 2 2v3a2 2 0 0 1-2 2A18 18 0 0 1 2 4a2 2 0 0 1 2-2h3a2 2 0 0 1 2 2v3a2 2 0 0 1-.8 1.6l-.468.351a1 1 0 0 0-.292 1.233a14 14 0 0 0 6.392 6.384"></path></symbol>
<symbol viewBox="0 0 24 24" id="paint-roller"><g fill="none" stroke="currentColor" stroke-linecap="round" stroke-linejoin="round" stroke-width="2"><rect width="16" height="6" x="2" y="2" rx="2"></rect><path d="M10 16v-2a2 2 0 0 1 2-2h8a2 2 0 0 0 2-2V7a2 2 0 0 0-2-2h-2"></path><rect width="4" height="6" x="8" y="16" rx="1"></rect></g></symbol>
<symbol viewBox="0 0 24 24" id="newspaper"><g fill="none" stroke="currentColor" stroke-linecap="round" stroke-linejoin="round" stroke-width="2"><path d="M15 18h-5m8-4h-8m-6 8h16a2 2 0 0 0 2-2V4a2 2 0 0 0-2-2H8a2 2 0 0 0-2 2v16a2 2 0 0 1-4 0v-9a2 2 0 0 1 2-2h2"></path><rect width="8" height="4" x="10" y="6" rx="1"></rect></g></symbol>
<symbol viewBox="0 0 24 24" id="music-2"><g fill="none" stroke="currentColor" stroke-linecap="round" stroke-linejoin="round" stroke-width="2"><circle cx="8" cy="18" r="4"></circle><path d="M12 18V2l7 4"></path></g></symbol>
<symbol viewBox="0 0 24 24" id="moon"><path fill="none" stroke="currentColor" stroke-linecap="round" stroke-linejoin="round" stroke-width="2" d="M12 3a6 6 0 0 0 9 9a9 9 0 1 1-9-9"></path></symbol>
<symbol viewBox="0 0 24 24" id="message-circle-question"><g fill="none" stroke="currentColor" stroke-linecap="round" stroke-linejoin="round" stroke-width="2"><path d="M7.9 20A9 9 0 1 0 4 16.1L2 22Z"></path><path d="M9.09 9a3 3 0 0 1 5.83 1c0 2-3 3-3 3m.08 4h.01"></path></g></symbol>
<symbol viewBox="0 0 24 24" id="menu"><path fill="none" stroke="currentColor" stroke-linecap="round" stroke-linejoin="round" stroke-width="2" d="M4 12h16M4 18h16M4 6h16"></path></symbol>
<symbol viewBox="0 0 24 24" id="megaphone"><path fill="none" stroke="currentColor" stroke-linecap="round" stroke-linejoin="round" stroke-width="2" d="m3 11l18-5v12L3 14zm8.6 5.8a3 3 0 1 1-5.8-1.6"></path></symbol>
<symbol viewBox="0 0 24 24" id="map-pin"><g fill="none" stroke="currentColor" stroke-linecap="round" stroke-linejoin="round" stroke-width="2"><path d="M20 10c0 4.993-5.539 10.193-7.399 11.799a1 1 0 0 1-1.202 0C9.539 20.193 4 14.993 4 10a8 8 0 0 1 16 0"></path><circle cx="12" cy="10" r="3"></circle></g></symbol>
<symbol viewBox="0 0 24 24" id="mail"><g fill="none" stroke="currentColor" stroke-linecap="round" stroke-linejoin="round" stroke-width="2"><path d="m22 7l-8.991 5.727a2 2 0 0 1-2.009 0L2 7"></path><rect width="20" height="16" x="2" y="4" rx="2"></rect></g></symbol>
<symbol viewBox="0 0 24 24" id="loader-circle"><path fill="none" stroke="currentColor" stroke-linecap="round" stroke-linejoin="round" stroke-width="2" d="M21 12a9 9 0 1 1-6.219-8.56"></path></symbol>
<symbol viewBox="0 0 24 24" id="library-big"><g fill="none" stroke="currentColor" stroke-linecap="round" stroke-linejoin="round" stroke-width="2"><rect width="8" height="18" x="3" y="3" rx="1"></rect><path d="M7 3v18m13.4-2.1c.2.5-.1 1.1-.6 1.3l-1.9.7c-.5.2-1.1-.1-1.3-.6L11.1 5.1c-.2-.5.1-1.1.6-1.3l1.9-.7c.5-.2 1.1.1 1.3.6Z"></path></g></symbol>
<symbol viewBox="0 0 24 24" id="laptop"><path fill="none" stroke="currentColor" stroke-linecap="round" stroke-linejoin="round" stroke-width="2" d="M18 5a2 2 0 0 1 2 2v8.526a2 2 0 0 0 .212.897l1.068 2.127a1 1 0 0 1-.9 1.45H3.62a1 1 0 0 1-.9-1.45l1.068-2.127A2 2 0 0 0 4 15.526V7a2 2 0 0 1 2-2zm2.054 10.987H3.946"></path></symbol>
<symbol viewBox="0 0 140 116" fill="none" id="karmona-square-simple-light">
<path d="M0 116V0H23.3333V116H0ZM105 116L46.6667 58L105 0H140L93.3333 46.4H93.151L81.6667 58L140 116H105Z" fill="white"></path>
</symbol>
<symbol viewBox="0 0 140 140" fill="none" id="karmona-square-simple-dark">
<path d="M0 129V11H23.3333V129H0ZM105 129L46.6667 70L105 11H140L93.3333 58.2H93.151L81.6667 70L140 129H105Z" fill="#121E1F"></path>
</symbol>
<symbol viewBox="0 0 24 24" id="instagram"><g fill="none" stroke="currentColor" stroke-linecap="round" stroke-linejoin="round" stroke-width="2"><rect width="20" height="20" x="2" y="2" rx="5" ry="5"></rect><path d="M16 11.37A4 4 0 1 1 12.63 8A4 4 0 0 1 16 11.37m1.5-4.87h.01"></path></g></symbol>
<symbol viewBox="0 0 24 24" id="info"><g fill="none" stroke="currentColor" stroke-linecap="round" stroke-linejoin="round" stroke-width="2"><circle cx="12" cy="12" r="10"></circle><path d="M12 16v-4m0-4h.01"></path></g></symbol>
<symbol viewBox="0 0 24 24" id="history"><g fill="none" stroke="currentColor" stroke-linecap="round" stroke-linejoin="round" stroke-width="2"><path d="M3 12a9 9 0 1 0 9-9a9.75 9.75 0 0 0-6.74 2.74L3 8"></path><path d="M3 3v5h5m4-1v5l4 2"></path></g></symbol>
<symbol viewBox="0 0 24 24" id="globe"><g fill="none" stroke="currentColor" stroke-linecap="round" stroke-linejoin="round" stroke-width="2"><circle cx="12" cy="12" r="10"></circle><path d="M12 2a14.5 14.5 0 0 0 0 20a14.5 14.5 0 0 0 0-20M2 12h20"></path></g></symbol>
<symbol viewBox="0 0 24 24" id="facebook"><path fill="none" stroke="currentColor" stroke-linecap="round" stroke-linejoin="round" stroke-width="2" d="M18 2h-3a5 5 0 0 0-5 5v3H7v4h3v8h4v-8h3l1-4h-4V7a1 1 0 0 1 1-1h3z"></path></symbol>
<symbol viewBox="0 0 24 24" id="eye"><g fill="none" stroke="currentColor" stroke-linecap="round" stroke-linejoin="round" stroke-width="2"><path d="M2.062 12.348a1 1 0 0 1 0-.696a10.75 10.75 0 0 1 19.876 0a1 1 0 0 1 0 .696a10.75 10.75 0 0 1-19.876 0"></path><circle cx="12" cy="12" r="3"></circle></g></symbol>
<symbol viewBox="0 0 24 24" id="drafting-compass"><g fill="none" stroke="currentColor" stroke-linecap="round" stroke-linejoin="round" stroke-width="2"><path d="m12.99 6.74l1.93 3.44M19.136 12a10 10 0 0 1-14.271 0M21 21l-2.16-3.84M3 21l8.02-14.26"></path><circle cx="12" cy="5" r="2"></circle></g></symbol>
<symbol viewBox="0 0 24 24" id="compass"><g fill="none" stroke="currentColor" stroke-linecap="round" stroke-linejoin="round" stroke-width="2"><path d="m16.24 7.76l-1.804 5.411a2 2 0 0 1-1.265 1.265L7.76 16.24l1.804-5.411a2 2 0 0 1 1.265-1.265z"></path><circle cx="12" cy="12" r="10"></circle></g></symbol>
<symbol viewBox="0 0 24 24" id="cloudy"><g fill="none" stroke="currentColor" stroke-linecap="round" stroke-linejoin="round" stroke-width="2"><path d="M17.5 21H9a7 7 0 1 1 6.71-9h1.79a4.5 4.5 0 1 1 0 9"></path><path d="M22 10a3 3 0 0 0-3-3h-2.207a5.502 5.502 0 0 0-10.702.5"></path></g></symbol>
<symbol viewBox="0 0 24 24" id="clock"><g fill="none" stroke="currentColor" stroke-linecap="round" stroke-linejoin="round" stroke-width="2"><circle cx="12" cy="12" r="10"></circle><path d="M12 6v6l4 2"></path></g></symbol>
<symbol viewBox="0 0 24 24" id="circle"><circle cx="12" cy="12" r="10" fill="none" stroke="currentColor" stroke-linecap="round" stroke-linejoin="round" stroke-width="2"></circle></symbol>
<symbol viewBox="0 0 24 24" id="chevrons-down"><path fill="none" stroke="currentColor" stroke-linecap="round" stroke-linejoin="round" stroke-width="2" d="m7 6l5 5l5-5M7 13l5 5l5-5"></path></symbol>
<symbol viewBox="0 0 24 24" id="chevron-right"><path fill="none" stroke="currentColor" stroke-linecap="round" stroke-linejoin="round" stroke-width="2" d="m9 18l6-6l-6-6"></path></symbol>
<symbol viewBox="0 0 24 24" id="chevron-down"><path fill="none" stroke="currentColor" stroke-linecap="round" stroke-linejoin="round" stroke-width="2" d="m6 9l6 6l6-6"></path></symbol>
<symbol viewBox="0 0 24 24" id="check"><path fill="none" stroke="currentColor" stroke-linecap="round" stroke-linejoin="round" stroke-width="2" d="M20 6L9 17l-5-5"></path></symbol>
<symbol viewBox="0 0 24 24" id="car"><g fill="none" stroke="currentColor" stroke-linecap="round" stroke-linejoin="round" stroke-width="2"><path d="M19 17h2c.6 0 1-.4 1-1v-3c0-.9-.7-1.7-1.5-1.9C18.7 10.6 16 10 16 10s-1.3-1.4-2.2-2.3c-.5-.4-1.1-.7-1.8-.7H5c-.6 0-1.1.4-1.4.9l-1.4 2.9A3.7 3.7 0 0 0 2 12v4c0 .6.4 1 1 1h2"></path><circle cx="7" cy="17" r="2"></circle><path d="M9 17h6"></path><circle cx="17" cy="17" r="2"></circle></g></symbol>
<symbol viewBox="0 0 24 24" id="car-front"><g fill="none" stroke="currentColor" stroke-linecap="round" stroke-linejoin="round" stroke-width="2"><path d="m21 8l-2 2l-1.5-3.7A2 2 0 0 0 15.646 5H8.4a2 2 0 0 0-1.903 1.257L5 10L3 8m4 6h.01M17 14h.01"></path><rect width="18" height="8" x="3" y="10" rx="2"></rect><path d="M5 18v2m14-2v2"></path></g></symbol>
<symbol viewBox="0 0 24 24" id="calendar"><g fill="none" stroke="currentColor" stroke-linecap="round" stroke-linejoin="round" stroke-width="2"><path d="M8 2v4m8-4v4"></path><rect width="18" height="18" x="3" y="4" rx="2"></rect><path d="M3 10h18"></path></g></symbol>
<symbol viewBox="0 0 24 24" id="cake"><g fill="none" stroke="currentColor" stroke-linecap="round" stroke-linejoin="round" stroke-width="2"><path d="M20 21v-8a2 2 0 0 0-2-2H6a2 2 0 0 0-2 2v8"></path><path d="M4 16s.5-1 2-1s2.5 2 4 2s2.5-2 4-2s2.5 2 4 2s2-1 2-1M2 21h20M7 8v3m5-3v3m5-3v3M7 4h.01M12 4h.01M17 4h.01"></path></g></symbol>
<symbol viewBox="0 0 24 24" id="bolt"><g fill="none" stroke="currentColor" stroke-linecap="round" stroke-linejoin="round" stroke-width="2"><path d="M21 16V8a2 2 0 0 0-1-1.73l-7-4a2 2 0 0 0-2 0l-7 4A2 2 0 0 0 3 8v8a2 2 0 0 0 1 1.73l7 4a2 2 0 0 0 2 0l7-4A2 2 0 0 0 21 16"></path><circle cx="12" cy="12" r="4"></circle></g></symbol>
<symbol viewBox="0 0 24 24" id="arrow-right"><path fill="none" stroke="currentColor" stroke-linecap="round" stroke-linejoin="round" stroke-width="2" d="M5 12h14m-7-7l7 7l-7 7"></path></symbol>
<symbol viewBox="0 0 24 24" id="arrow-left"><path fill="none" stroke="currentColor" stroke-linecap="round" stroke-linejoin="round" stroke-width="2" d="m12 19l-7-7l7-7m7 7H5"></path></symbol>
<symbol viewBox="0 0 24 24" id="arrow-down"><path fill="none" stroke="currentColor" stroke-linecap="round" stroke-linejoin="round" stroke-width="2" d="M12 5v14m7-7l-7 7l-7-7"></path></symbol>
</defs>
</svg>